<svg xmlns="http://www.w3.org/2000/svg" xmlns:xlink="http://www.w3.org/1999/xlink" viewBox="0 0 65 47" fill="#fff" fill-rule="evenodd" stroke="#000" stroke-linecap="round" stroke-linejoin="round"><use xlink:href="#B" x=".5" y=".5"/><defs><linearGradient id="A" x1="0.00%" y1="49.98%" x2="100.01%" y2="49.98%"><stop offset="0%" stop-color="#7acbbf"/><stop offset="100%" stop-color="#3ea4db"/></linearGradient></defs><symbol id="B" overflow="visible"><g stroke="none"><path d="M59.032 8.484l-6.114-.903-2.212-2.616 3.273-1.592 5.421.703 2.802 2.479zm-14.08-4.425l-1.497-2.15L46.748.583l4.797.583 2.006 2.048-3.278 1.576zm-4.152 1.697l-5.248-.772-.909-2.264 3.75-1.393 4.739.615 1.475 2.154zm-9.86 1.004l-5.158-.819-.268-2.384 4.244-1.462 4.668.63.895 2.266zm.41 3.097l-5.266 2.301-5.777-1.083.12-3.101 5.036-1.869 5.173.826zM10.745 29.712L3.2 27.525l1.962-5.957 7.764-3.407 6.579 1.508-.265 5.506zm8.705-4.16l7.9 2.036.736 7.583-9.341 6.458-9.373-3.152 1.536-8.32zm15.522-2.291l8.134 1.867 2.707 6.91-7.181 5.827-9.762-2.832-.826-7.551zm.276-.336l-1.308-5.087 5.459-2.947 6.934 1.308 2.553 4.727-5.547 3.845zm4.003-8.264l-1.454-3.659 4.504-2.178 6.035.964 2.339 3.435-4.53 2.729zm10.826-9.699l2.159 2.61-3.809 2.036-6.009-.955-1.502-2.758 3.813-1.675zm-11.231 9.751l-5.473 2.906-6.745-1.387-.41-3.911 5.279-2.316 5.928 1.024zm-3.561-9.559l5.266.782 1.473 2.762-4.502 2.162-5.906-1.016-.733-2.923z" fill="url(#A)"/><g fill="#000" fill-rule="nonzero"><path d="M19.054 38.747c-1.852.337-3.485 1.947-3.64 3.667-.162 1.807 1.357 3.012 3.382 2.6 2.004-.397 3.6-2.192 3.588-3.933-.013-1.658-1.496-2.678-3.33-2.345zm.627-15.23c-1.433.204-2.683 1.169-2.763 2.184-.095 1.055 1.078 1.75 2.6 1.516s2.74-1.277 2.732-2.304c-.008-.987-1.158-1.6-2.58-1.396zm-7.023 4.434c-1.265-.352-3.082.243-4.108 1.363-1.067 1.166-.895 2.47.438 2.878 1.35.412 3.298-.277 4.295-1.5.957-1.174.655-2.384-.625-2.74zm17.088 4.758c-1.488-.414-3.27.285-4.028 1.604-.8 1.378-.186 2.925 1.402 3.4 1.612.492 3.517-.328 4.203-1.778.658-1.388-.07-2.816-1.577-3.236z"/><path d="M28.857 26.7l-9.142-2.304-9.913 5.248-2.013 9.826 11.173 3.844 11-7.805zm-9.79 14.005l-8.61-2.853 1.3-7.64 7.9-4.295 7.35 1.906.635 7.01z"/><path d="M12.433 36.616c-.7-1.1-2.62-1.2-4.332-.206C6.337 37.435 5.364 39.268 6 40.514c.66 1.293 2.753 1.4 4.595.235 1.784-1.13 2.574-2.982 1.838-4.134zm17.448-10.57c-.848-.787-2.48-.85-3.694-.144-1.245.723-1.63 2.006-.8 2.87.847.9 2.6.965 3.884.16 1.24-.784 1.492-2.078.618-2.886zm-16.624-9.337c-1.266.155-2.44.883-2.62 1.647-.186.8.756 1.306 2.1 1.13 1.336-.173 2.5-.956 2.608-1.724.104-.745-.83-1.208-2.087-1.054zm-6.507 3.325c-1.058-.26-2.67.182-3.644 1-1.005.857-.96 1.8.144 2.103 1.117.298 2.833-.203 3.8-1.094.926-.862.778-1.755-.292-2.02z"/><path d="M13.197 17.372l-9.04 3.913-2.476 7.057 8.98 2.663 10.045-5.48.134-6.43zm5.626 7.67l-7.827 4.156-6.953-1.996 1.74-5.5 7.203-3.187 6.124 1.416z"/><path d="M5.805 26.324c-.505-.8-2.1-.854-3.633-.143-1.562.73-2.5 2.02-2.066 2.893.458.9 2.192.973 3.817.16 1.584-.8 2.402-2.095 1.882-2.9zm16-7.718c-.635-.6-2.04-.635-3.174-.105-1.16.542-1.64 1.496-1.032 2.135.622.656 2.124.7 3.313.115 1.16-.58 1.543-1.54.892-2.145zM41.947 37.38c-.45-1.492-2.133-2.4-3.8-2.1s-2.8 1.753-2.476 3.298c.33 1.62 2.092 2.694 3.902 2.335 1.794-.355 2.834-1.962 2.363-3.524zm-4.443-14.708c-.275-.9-1.548-1.473-2.86-1.286-1.322.2-2.25 1.075-2.06 2 .2.97 1.514 1.607 2.922 1.392 1.397-.213 2.284-1.174 2-2.116zm9.253 7.13c-1.532-.376-3.05.26-3.425 1.458-.4 1.25.596 2.65 2.236 3.087 1.663.443 3.263-.297 3.54-1.608.266-1.258-.798-2.555-2.35-2.937z"/><path d="M44.321 24.312l-9.402-2.115-8.07 4.815.794 8.914 11.65 3.45 8.406-7.03zm-5.626 12.72l-8.96-2.567-.86-6.937 6.398-3.936 7.568 1.747 2.462 6.39z"/><path d="M45.13 23.712c-1.024-.723-2.608-.78-3.586-.13-1.002.665-1.028 1.84-.01 2.632 1.05.814 2.76.882 3.765.145.98-.718.882-1.904-.17-2.647zm-3.763-9.124c-.3-.65-1.407-1.054-2.507-.92-1.108.137-1.828.772-1.595 1.437.238.686 1.4 1.134 2.557.983s1.845-.83 1.546-1.5zm-6.858 1.977c-1.126-.225-2.4.16-2.87.875-.483.74.064 1.56 1.247 1.812 1.196.255 2.53-.176 2.956-.943.4-.744-.195-1.515-1.333-1.744zm14.948 2.992c-1.282-.257-2.512.18-2.765.995-.263.844.607 1.78 1.964 2.07 1.373.293 2.653-.2 2.84-1.078.18-.848-.74-1.728-2.038-1.987z"/><path d="M47.199 15.745l-8.05-1.497-6.402 3.4 1.406 6.034 9.653 2.244 6.52-4.646zm-4.002 8.657l-7.454-1.688-1.262-4.708 5.063-2.763 6.453 1.229 2.33 4.398z"/><path d="M47.854 15.32c-.895-.513-2.235-.552-3.027-.1-.808.47-.765 1.3.13 1.852.917.566 2.345.612 3.153.1.8-.502.66-1.336-.256-1.86zM33.497 9.728c-.154-.514-1.083-.834-2.084-.726s-1.742.612-1.636 1.137c.1.54 1.06.9 2.114.77 1.05-.12 1.764-.653 1.606-1.18zm-6.38 1.557c-.964-.176-2.142.125-2.653.684-.525.574-.155 1.2.85 1.403 1.013.197 2.245-.137 2.728-.73.47-.577.048-1.178-.924-1.356z"/><path d="M38.463 10.636l-6.892-1.175-6.16 2.67.4 4.62 8.02 1.678 6.422-3.5zm-4.92 6.652l-6.217-1.27-.438-3.6 4.88-2.162 5.517.96 1.3 3.4z"/><path d="M28.457 15.452c-.67-.514-1.992-.553-2.983-.1-1 .473-1.33 1.303-.677 1.86.67.57 2.076.614 3.106.1 1.008-.505 1.24-1.34.554-1.867zm10.66-5.15c-.705-.403-1.886-.434-2.665-.07-.793.37-.892 1.02-.194 1.45.713.44 1.963.475 2.763.075.784-.392.816-1.044.096-1.456zm5.096-1.75c-.287-.485-1.276-.786-2.22-.684-.95.103-1.53.577-1.284 1.07.25.507 1.268.837 2.26.725.987-.112 1.54-.614 1.244-1.1zm7.144 3.633c-1.098-.184-2.126.13-2.3.717-.188.603.582 1.27 1.735 1.473 1.165.206 2.226-.143 2.36-.767.13-.606-.676-1.236-1.784-1.422z"/><path d="M49.29 9.397l-7.013-1.105-5.262 2.51 1.64 4.32 8.2 1.56 5.292-3.27zm-3.013 6.225l-6.352-1.182-1.4-3.376 4.156-2.032 5.616.9 2.157 3.186z"/><path d="M49.837 9.082c-.8-.38-1.948-.407-2.608-.065-.673.35-.596.958.196 1.363.8.413 2.03.445 2.702.07.66-.37.517-.982-.3-1.368zm-3.467-5.06c-.278-.376-1.167-.6-1.995-.53s-1.315.45-1.07.83c.25.392 1.163.645 2.028.557s1.32-.475 1.036-.86zm-4.986 1.135c-.874-.126-1.786.092-2.05.494-.27.412.238.864 1.146 1 .915.14 1.857-.1 2.092-.522.23-.413-.307-.846-1.188-.973zm11.4 1.645c-.963-.14-1.846.1-1.985.543-.142.455.55.953 1.554 1.105 1.013.153 1.922-.1 2.02-.577.096-.455-.62-.93-1.6-1.07z"/><path d="M50.874 4.68l-6.222-.85-4.464 1.937L41.9 9.024l7.14 1.15 4.456-2.437zm-2.376 4.71l-5.544-.877-1.43-2.55 3.523-1.562 4.973.69 1.995 2.424z"/><path d="M43.739 8.114c-.7-.36-1.833-.386-2.53-.062-.708.332-.727.9-.018 1.293.723.392 1.906.422 2.617.066.698-.35.655-.93-.07-1.298zm7.604-3.677c-.7-.293-1.73-.315-2.296-.05-.577.27-.483.74.23 1.05.725.316 1.794.34 2.37.052.565-.283.422-.755-.302-1.052zm-25.916.86c-.92.088-1.654.498-1.63.924.023.436.828.72 1.8.622s1.677-.53 1.612-.957c-.064-.417-.855-.678-1.773-.6zm-4.163 1.854c-.84-.14-1.936.102-2.463.55-.54.46-.287.967.584 1.122.88.156 2.02-.1 2.528-.584.496-.463.198-.946-.65-1.088z"/><path d="M31.534 6.622l-6.02-.95-5.885 2.158-.22 3.662 6.854 1.304 6.198-2.753zm-5.365 5.287l-5.327-.992.073-2.865 4.666-1.742 4.8.772.64 2.715z"/><path d="M21.917 10.468c-.53-.406-1.697-.436-2.635-.07-.954.373-1.336 1.025-.826 1.46.52.443 1.756.478 2.73.075.956-.395 1.27-1.052.73-1.466zm10.256-4.117c-.57-.326-1.628-.35-2.383-.055-.768.3-.954.823-.393 1.17.572.354 1.684.38 2.462.06.764-.316.895-.842.315-1.175zm-1.06-4.413c-.098-.33-.828-.534-1.636-.465s-1.418.395-1.35.73c.068.342.8.563 1.654.487s1.434-.415 1.333-.752zm-5.127.993c-.76-.1-1.7.08-2.112.43-.42.36-.135.752.65.87.792.12 1.765-.086 2.16-.454.386-.36.068-.736-.698-.847zm9.882 1.428c-.833-.12-1.757.087-2.076.47-.327.393.098.822.96.953.87.132 1.825-.094 2.12-.497.288-.395-.167-.806-1.005-.928z"/><path d="M35.027 2.512l-5.435-.744-4.973 1.694.24 2.818 6.1.982 5.164-2.098zM30.8 6.592l-4.756-.752-.264-2.206 3.938-1.364 4.336.603.803 2.104z"/><path d="M35.57 2.302c-.534-.256-1.475-.275-2.12-.042-.653.236-.77.646-.24.916.538.275 1.522.295 2.18.045.65-.248.722-.66.18-.92zm4.303-1.14c-.187-.313-.958-.5-1.727-.442s-1.278.376-1.12.695c.162.325.95.536 1.75.463s1.287-.396 1.096-.717z"/><path d="M43.857 1.707L38.34 1l-4.4 1.612 1.018 2.67 6.224.93 4.463-1.984zm-3.013 3.87l-4.842-.7-.87-2.092 3.47-1.297 4.403.573 1.355 1.997z"/><path d="M44.329 1.505c-.6-.244-1.517-.26-2.083-.04-.574.224-.575.614.015.87.6.26 1.567.28 2.142.042.567-.234.526-.626-.074-.874zm3.713-1.07c-.265-.3-1.07-.486-1.808-.422s-1.15.36-.9.663c.245.3 1.07.5 1.836.44s1.154-.377.884-.682zm5.787 2.2c-.855-.108-1.63.08-1.738.425-.1.353.513.74 1.4.857.894.118 1.688-.085 1.766-.447.076-.355-.568-.726-1.43-.835z"/><path d="M52.082.956L46.497.282 42.63 1.819l1.704 2.537 6.314.88 3.842-1.883zm-1.937 3.68l-4.91-.673-1.405-1.988L46.88.739l4.458.546 1.842 1.9z"/><path d="M52.492.751c-.642-.232-1.552-.25-2.05-.038-.503.214-.402.585.242.83.654.248 1.605.267 2.106.04.494-.223.353-.597-.3-.832zm8.083 7.572c-.495-.48-1.614-.78-2.513-.678s-1.278.572-.82 1.06c.47.502 1.628.828 2.57.718s1.272-.608.763-1.1zm1.602-2.548c-.973-.132-1.774.095-1.796.514-.022.43.777.9 1.793 1.043 1.024.145 1.843-.103 1.822-.544-.02-.43-.838-.88-1.818-1.013z"/><path d="M59.785 3.775l-6.293-.807-3.85 1.837 2.52 3.077 7.24 1.082 3.716-2.3zm-1.11 4.452l-5.62-.825-2.058-2.41 3.03-1.482 5.032.655 2.56 2.292z"/><path d="M60.18 3.545c-.767-.278-1.768-.298-2.254-.046-.493.256-.28.7.492.995.788.3 1.837.322 2.323.05.48-.27.22-.715-.562-.998z"/></g></g></symbol></svg>