<?xml version="1.0" encoding="utf-8"?>
<!-- Svg Vector Icons : http://www.onlinewebfonts.com/icon -->
<!DOCTYPE svg PUBLIC "-//W3C//DTD SVG 1.1//EN" "http://www.w3.org/Graphics/SVG/1.1/DTD/svg11.dtd">
<svg version="1.1" xmlns="http://www.w3.org/2000/svg" xmlns:xlink="http://www.w3.org/1999/xlink" x="0px" y="0px" viewBox="0 0 1000 1000" enable-background="new 0 0 1000 1000" xml:space="preserve">
<metadata> Svg Vector Icons : http://www.onlinewebfonts.com/icon </metadata>
<g><g transform="translate(0.000000,511.000000) scale(0.100000,-0.100000)"><path d="M4852.5,3827c-275.2-88.5-427.6-292.4-427.6-567.7c0-336.7,235.9-575,575-575c339.1,0,575,238.3,575,575c0,233.4-108.1,415.3-314.5,521C5154.8,3834.4,4945.9,3859,4852.5,3827z"/><path d="M1313.9,3040.7c-275.2-88.5-427.6-292.4-427.6-567.7c0-336.7,235.9-575,575-575s575,238.3,575,575c0,233.4-108.1,415.3-314.5,521C1616.2,3048,1407.3,3072.6,1313.9,3040.7z"/><path d="M8391.2,3040.7c-275.3-88.5-427.6-292.4-427.6-567.7c0-336.7,235.9-575,575-575c339.1,0,575,238.3,575,575c0,233.4-108.1,415.3-314.6,521C8693.4,3048,8484.5,3072.6,8391.2,3040.7z"/><path d="M4803.4,1981.5v-491.5h-1037H2726.9L2464,1753l-265.4,265.4l-140.1-142.5L1916,1735.8l265.4-265.4l262.9-262.9V168V-869h-491.5h-491.5v-196.6v-196.6h491.5h491.5v-1179.5v-1179.5H5000h2555.7v1179.5v1179.5h491.5h491.5v196.6V-869h-491.5h-491.5V168v1039.5l262.9,262.9l265.4,265.4l-142.5,140.1l-140,142.5L7536,1753l-262.9-262.9H6233.6h-1037v491.5V2473H5000h-196.6V1981.5z M6179.5-1458.8v-1376.1h-196.6h-196.6v1376.1V-82.6h196.6h196.6V-1458.8z M5393.2-1851.9v-982.9h-196.6H5000v982.9V-869h196.6h196.6V-1851.9z M4606.8-2343.4v-491.5h-196.6h-196.6v491.5v491.5h196.6h196.6V-2343.4z"/><path d="M527.6-497.9C252.3-586.4,100-790.4,100-1065.6c0-336.7,235.9-575,575-575s575,238.3,575,575c0,233.4-108.1,415.3-314.5,521C829.8-490.6,621-466,527.6-497.9z"/><path d="M9177.5-497.9c-275.3-88.5-427.6-292.4-427.6-567.7c0-336.7,235.9-575,575-575c339.1,0,575,238.3,575,575c0,233.4-108.1,415.3-314.6,521C9479.8-490.6,9270.9-466,9177.5-497.9z"/></g></g>
</svg>